<svg id="Layer_1" xmlns="http://www.w3.org/2000/svg" viewBox="0 0 954.1 288.7"><style>.st0{fill:#fff}</style><path class="st0" d="M497.4 142c22.9 0 40.6-6.6 53.1-19.8 1.6 2 3.3 3.9 5.3 5.7 9.9 9 22.1 13.5 36.4 13.5 14.7 0 26.9-4.5 36.6-13.6 9.8-9.1 14.7-21.3 14.7-36.7 0-15.6-4.9-27.9-14.8-36.9s-22-13.5-36.5-13.5c-14.4 0-26.5 4.5-36.4 13.5-7.3 6.6-11.9 15.1-13.9 25.4-2.5 11.2-10.1 21.4-17.2 27.7-7.1 6.3-15.3 9.4-24.7 9.4-11.5 0-21-4.2-28.4-12.5S460.5 85 460.5 71.6c0-12.8 3.5-23.9 10.5-33.1s17.4-13.8 31.1-13.8c13.6 0 23.9 5.9 30.9 17.7 1.5 2.6 2.9 5.4 4.1 8.5l23.5-17.1.2-31.5h-23.7V13c-11.3-8.7-25.3-13-42-13-13.4 0-25.8 2.8-37 8.3-11.3 5.5-20.3 13.7-27 24.7-6.7 10.9-10 23.7-10 38.2 0 20.4 6.4 37.4 19.2 50.7 12.9 13.4 31.9 20.1 57.1 20.1zm94.7-77.7c6 0 10.7 2.3 14.2 6.9s5.2 11 5.2 19.2c0 9.3-1.8 16.2-5.4 20.5-3.6 4.4-8.3 6.6-14.1 6.6-6.5 0-11.3-2.4-14.5-7.3s-4.8-11-4.8-18.5c.2-18.3 6.6-27.4 19.4-27.4zm314 57.2c-5.7 0-11.1-1.8-16.3-5.5-5.1-3.6-7.9-9.8-8.4-18.6h72.7c0-10.2-1.6-19.4-4.7-27.7-3.2-8.3-8.8-15.2-16.9-20.7-8.1-5.6-17.8-8.3-28.9-8.3-15.4 0-28.1 5-38 14.9-3.4 3.4-6.2 7-8.4 10.9-3.3-6.8-8.5-12.7-15.5-17.5-8.1-5.6-17.8-8.3-28.9-8.3-15.4 0-28.1 5-38 14.9s-14.9 22.3-14.9 37.1c0 14.6 4.8 26.3 14.5 35.2 9.6 8.9 23.1 13.4 40.3 13.4 19.8 0 34.7-6.6 44.9-19.8 1.7 2.3 3.5 4.4 5.7 6.4 9.6 8.9 23.1 13.4 40.3 13.4 21.6 0 37.4-7.8 47.6-23.5l-24.2-7.6c-7.9 7.5-15.4 11.3-22.9 11.3zM901.9 61c6.1 0 10.9 1.9 14.5 5.7 3.5 3.8 5.7 8.3 6.4 13.7H882c1.8-12.9 8.5-19.4 19.9-19.4zm-90.8 0c6.1 0 10.9 1.9 14.5 5.7 3.5 3.8 5.7 8.3 6.4 13.7h-40.8C793 67.5 799.6 61 811.1 61zm35.5 51.9l-8.7-2.7c-7.6 7.5-15.1 11.3-22.6 11.3-5.7 0-11.1-1.8-16.3-5.5-5.1-3.6-7.9-9.8-8.4-18.6h60.2c.5 6.8 2.2 12.9 5 18.4-3.1-1-6.8-2.1-9.2-2.9zm86.3 104.3c0-18.7-11.6-26.9-25.2-26.9-10.2 0-19.9 3.8-32.7 13.1V192l-65 .5c-5.3-1.9-11-2.8-16.8-2.8-5.1 0-10.2.8-15.1 2.4h-73.5v15.3h16L693.3 229h-8.4v-78.6h-36.3v16.5h17.3v103.5h-14.1v-52c0-15.3-9.5-29.1-37.6-29.1h-2.4l-32 1c-12 0-24.2 7-30.2 22.9h-.6V192h-71.3v15.3h16L466.2 229h-8.4v-78.6h-36.3v16.5h17.3v103.4h-17.5v16.5h50.8v-16.5h-14.2l.1-23h8.3l39.9 39.5h86.9c3.4 1.1 7.1 1.7 11 1.7 10.6 0 18.9-3.6 30.9-13.3v11.6h64v-16.3l-14.2-.1.1-23.1h8.3l39.8 39.5 50.2.5c4.1.9 8.5 1.3 13.1 1.3 20.2 0 37.3-8.7 47.5-24.4l-16.4-7.1c-7 9.9-18.4 15.3-30.6 15.3-17.6 0-29.6-10.5-32.5-28.7h79.5c0-14.5-4.4-26.4-11.4-35.4H856v61.9h-16.4v16.5h52v-16.5h-16.4v-50.8c9.7-7.6 19.9-12.1 27.6-12.1 7.7 0 11.2 5.2 11.2 17.3v62.1h35.5v-16.5h-16.4v-53h-.2zm-398.9 53l-18.9.1v.1h-1.2L480 236.8l35.9-29.5H534v62.9zm98.5-7.4c-7.7 7-17.3 11.2-25.8 11.2-10.2 0-17.3-6.4-17.3-15.7 0-9.4 7.7-16.3 18.3-16.3 8.1 0 16.6 3.2 24.8 9.4v11.4zm0-27.1c-7.7-5-17.7-8-26.2-8-19.7 0-34.9 13.5-34.9 30.7 0 4.3.9 8.4 2.6 12.1l-.2-.1h-20.7v-27.2c0-18.3 4.8-29.9 19.6-33.1l18 6.2c4.3-7.4 11.4-11.2 20.5-11.2 11.4 0 21.3 4.8 21.3 18.3v12.3zm74.6 1.1l35.9-29.5h12.1c-7 8.2-11.5 19.1-11.5 31.9 0 12.2 3.9 22.9 10.7 31.2H741l-33.9-33.6zm57.8-6.6c2.8-15.7 14-25.8 28.8-25.8s28 10.9 31 25.8h-59.8zm-629-.5c26.3 0 46.1-9.9 58.9-27.1v27h58.1v-28.8h-29.1l-.3-45.3 14.7-.1 74.3 74.1 29.5-.1v-28.8h-14l-61-59.7 52.6-53H342V59.1h-88.7v28.8h24.1l-39.2 38.9-14.4-.1.3-67.5-29.3-.2v27.6c-15.1-19.6-37.7-27.5-56.7-27.5-20.4 0-36.9 2.9-50.7 13.4v-13H58.7v59.2h28.9c8.2-21.3 22.4-31.9 42.6-31.9 16.7 0 29.3 5.6 37.9 16.8 8.5 11.2 12.8 24.6 12.8 40.3 0 16.4-4.5 29.6-13.6 39.7-9 10.1-20.6 15.2-34.6 15.2-20.2 0-37.1-7.2-45.3-28.4H58.5v59.2h28.9v-13.1c13.4 10.2 28.9 12.9 48.5 13.1v.1zM87.7 2h225.1v28.8H87.7zM29.3 30.8h29.2V2H0v285.3h58.5v-28.8H29.3zm312.7 0h29.3v227.7H342v28.8h58.6V2H342zM87.7 258.6h225.1v28.8H87.7z"/><path class="st0" d="M652.1 118.3l-14.2.4v21.8h124.6v-22.1h-15.3V66.6h15.3V44.4h-15.3V33.8c0-8.9 2.7-13.3 8.1-13.3 3.8 0 6.7 3.4 8.7 10.3l22.6-17.4C780.1 4.5 769.2 0 754 0c-12.6 0-22 3.4-28.4 10.2s-9.5 15.2-9.5 25.4v8.8H703v22.2h13.1v51.7h-32.8V66.6h15.3V44.4h-15.3V33.8c0-8.9 2.7-13.3 8.1-13.3 3.8 0 6.7 3.4 8.7 10.3l22.6-17.4C716.1 4.5 705.2 0 690 0c-12.6 0-22 3.4-28.4 10.2s-9.5 15.2-9.5 25.4v8.8H639v22.2h13.1v51.7z"/></svg>